ISO-10303-21;
HEADER;
/* Generated by software containing ST-Developer
 * from STEP Tools, Inc. (www.steptools.com) 
 */

FILE_DESCRIPTION(
/* description */ (''),
/* implementation_level */ '2;1');

FILE_NAME(
/* name */ 'nob.step',
/* time_stamp */ '2026-09-26T23:25:39+05:30',
/* author */ (''),
/* organization */ (''),
/* preprocessor_version */ 'ST-DEVELOPER v20.2',
/* originating_system */ 'Autodesk Translation Framework v15.15.0.0',
/* authorisation */ '');

FILE_SCHEMA (('AUTOMOTIVE_DESIGN { 1 0 10303 214 3 1 1 }'));
ENDSEC;

DATA;
#10=MECHANICAL_DESIGN_GEOMETRIC_PRESENTATION_REPRESENTATION('',(#13),#338);
#11=SHAPE_REPRESENTATION_RELATIONSHIP('SRR','None',#345,#12);
#12=ADVANCED_BREP_SHAPE_REPRESENTATION('',(#14),#337);
#13=STYLED_ITEM('',(#355),#14);
#14=MANIFOLD_SOLID_BREP('Body1',#184);
#15=(
BOUNDED_CURVE()
B_SPLINE_CURVE(2,(#324,#325,#326),.UNSPECIFIED.,.F.,.F.)
B_SPLINE_CURVE_WITH_KNOTS((3,3),(2.23035001219158,2.57218865548245),
 .UNSPECIFIED.)
CURVE()
GEOMETRIC_REPRESENTATION_ITEM()
RATIONAL_B_SPLINE_CURVE((8.15711800242854,8.55910564544903,8.91619018900749))
REPRESENTATION_ITEM('')
);
#16=(
BOUNDED_CURVE()
B_SPLINE_CURVE(2,(#327,#328,#329),.UNSPECIFIED.,.F.,.F.)
B_SPLINE_CURVE_WITH_KNOTS((3,3),(8.00902029394634,8.35085893723735),
 .UNSPECIFIED.)
CURVE()
GEOMETRIC_REPRESENTATION_ITEM()
RATIONAL_B_SPLINE_CURVE((8.91619018900771,8.55910564544912,8.15711800242845))
REPRESENTATION_ITEM('')
);
#17=CONICAL_SURFACE('',#206,7.,0.785398163397446);
#18=CONICAL_SURFACE('',#214,7.,0.785398163397449);
#19=CONICAL_SURFACE('',#217,2.84142135623731,0.78539816339745);
#20=FACE_BOUND('',#44,.T.);
#21=FACE_BOUND('',#46,.T.);
#22=FACE_BOUND('',#50,.T.);
#23=PLANE('',#201);
#24=PLANE('',#203);
#25=PLANE('',#211);
#26=PLANE('',#216);
#27=PLANE('',#220);
#28=PLANE('',#221);
#29=FACE_OUTER_BOUND('',#42,.T.);
#30=FACE_OUTER_BOUND('',#43,.T.);
#31=FACE_OUTER_BOUND('',#45,.T.);
#32=FACE_OUTER_BOUND('',#47,.T.);
#33=FACE_OUTER_BOUND('',#48,.T.);
#34=FACE_OUTER_BOUND('',#49,.T.);
#35=FACE_OUTER_BOUND('',#51,.T.);
#36=FACE_OUTER_BOUND('',#52,.T.);
#37=FACE_OUTER_BOUND('',#53,.T.);
#38=FACE_OUTER_BOUND('',#54,.T.);
#39=FACE_OUTER_BOUND('',#55,.T.);
#40=FACE_OUTER_BOUND('',#56,.T.);
#41=FACE_OUTER_BOUND('',#57,.T.);
#42=EDGE_LOOP('',(#123,#124,#125,#126));
#43=EDGE_LOOP('',(#127));
#44=EDGE_LOOP('',(#128));
#45=EDGE_LOOP('',(#129));
#46=EDGE_LOOP('',(#130,#131));
#47=EDGE_LOOP('',(#132,#133,#134,#135));
#48=EDGE_LOOP('',(#136,#137,#138,#139));
#49=EDGE_LOOP('',(#140));
#50=EDGE_LOOP('',(#141));
#51=EDGE_LOOP('',(#142,#143,#144,#145));
#52=EDGE_LOOP('',(#146,#147,#148,#149));
#53=EDGE_LOOP('',(#150));
#54=EDGE_LOOP('',(#151,#152,#153,#154));
#55=EDGE_LOOP('',(#155,#156,#157,#158));
#56=EDGE_LOOP('',(#159,#160));
#57=EDGE_LOOP('',(#161,#162,#163,#164,#165,#166));
#58=LINE('',#286,#67);
#59=LINE('',#297,#68);
#60=LINE('',#302,#69);
#61=LINE('',#307,#70);
#62=LINE('',#311,#71);
#63=LINE('',#314,#72);
#64=LINE('',#318,#73);
#65=LINE('',#331,#74);
#66=LINE('',#333,#75);
#67=VECTOR('',#228,4.17156228808693);
#68=VECTOR('',#241,10.);
#69=VECTOR('',#246,7.);
#70=VECTOR('',#253,7.5);
#71=VECTOR('',#258,10.);
#72=VECTOR('',#261,10.);
#73=VECTOR('',#266,7.);
#74=VECTOR('',#275,3.4);
#75=VECTOR('',#278,10.);
#76=CIRCLE('',#199,4.17156228808693);
#77=CIRCLE('',#200,4.17156228808693);
#78=CIRCLE('',#202,3.6);
#79=CIRCLE('',#204,3.6);
#80=CIRCLE('',#205,3.2);
#81=CIRCLE('',#207,6.5);
#82=CIRCLE('',#208,7.5);
#83=CIRCLE('',#210,7.5);
#84=CIRCLE('',#213,3.2);
#85=CIRCLE('',#215,6.5);
#86=CIRCLE('',#218,2.78284271247462);
#87=VERTEX_POINT('',#283);
#88=VERTEX_POINT('',#285);
#89=VERTEX_POINT('',#289);
#90=VERTEX_POINT('',#292);
#91=VERTEX_POINT('',#294);
#92=VERTEX_POINT('',#295);
#93=VERTEX_POINT('',#299);
#94=VERTEX_POINT('',#301);
#95=VERTEX_POINT('',#305);
#96=VERTEX_POINT('',#310);
#97=VERTEX_POINT('',#312);
#98=VERTEX_POINT('',#316);
#99=VERTEX_POINT('',#321);
#100=VERTEX_POINT('',#322);
#101=EDGE_CURVE('',#87,#87,#76,.T.);
#102=EDGE_CURVE('',#87,#88,#58,.T.);
#103=EDGE_CURVE('',#88,#88,#77,.T.);
#104=EDGE_CURVE('',#89,#89,#78,.T.);
#105=EDGE_CURVE('',#90,#90,#79,.T.);
#106=EDGE_CURVE('',#91,#92,#80,.T.);
#107=EDGE_CURVE('',#91,#92,#59,.F.);
#108=EDGE_CURVE('',#93,#93,#81,.T.);
#109=EDGE_CURVE('',#93,#94,#60,.T.);
#110=EDGE_CURVE('',#94,#94,#82,.T.);
#111=EDGE_CURVE('',#95,#95,#83,.T.);
#112=EDGE_CURVE('',#95,#94,#61,.T.);
#113=EDGE_CURVE('',#91,#96,#62,.F.);
#114=EDGE_CURVE('',#96,#97,#84,.T.);
#115=EDGE_CURVE('',#92,#97,#63,.T.);
#116=EDGE_CURVE('',#98,#98,#85,.T.);
#117=EDGE_CURVE('',#98,#95,#64,.T.);
#118=EDGE_CURVE('',#99,#100,#86,.F.);
#119=EDGE_CURVE('',#97,#99,#15,.T.);
#120=EDGE_CURVE('',#100,#96,#16,.T.);
#121=EDGE_CURVE('',#90,#89,#65,.T.);
#122=EDGE_CURVE('',#99,#100,#66,.T.);
#123=ORIENTED_EDGE('',*,*,#101,.F.);
#124=ORIENTED_EDGE('',*,*,#102,.T.);
#125=ORIENTED_EDGE('',*,*,#103,.T.);
#126=ORIENTED_EDGE('',*,*,#102,.F.);
#127=ORIENTED_EDGE('',*,*,#103,.F.);
#128=ORIENTED_EDGE('',*,*,#104,.F.);
#129=ORIENTED_EDGE('',*,*,#105,.T.);
#130=ORIENTED_EDGE('',*,*,#106,.T.);
#131=ORIENTED_EDGE('',*,*,#107,.F.);
#132=ORIENTED_EDGE('',*,*,#108,.T.);
#133=ORIENTED_EDGE('',*,*,#109,.T.);
#134=ORIENTED_EDGE('',*,*,#110,.T.);
#135=ORIENTED_EDGE('',*,*,#109,.F.);
#136=ORIENTED_EDGE('',*,*,#111,.T.);
#137=ORIENTED_EDGE('',*,*,#112,.T.);
#138=ORIENTED_EDGE('',*,*,#110,.F.);
#139=ORIENTED_EDGE('',*,*,#112,.F.);
#140=ORIENTED_EDGE('',*,*,#108,.F.);
#141=ORIENTED_EDGE('',*,*,#101,.T.);
#142=ORIENTED_EDGE('',*,*,#106,.F.);
#143=ORIENTED_EDGE('',*,*,#113,.T.);
#144=ORIENTED_EDGE('',*,*,#114,.T.);
#145=ORIENTED_EDGE('',*,*,#115,.F.);
#146=ORIENTED_EDGE('',*,*,#116,.F.);
#147=ORIENTED_EDGE('',*,*,#117,.T.);
#148=ORIENTED_EDGE('',*,*,#111,.F.);
#149=ORIENTED_EDGE('',*,*,#117,.F.);
#150=ORIENTED_EDGE('',*,*,#116,.T.);
#151=ORIENTED_EDGE('',*,*,#118,.F.);
#152=ORIENTED_EDGE('',*,*,#119,.F.);
#153=ORIENTED_EDGE('',*,*,#114,.F.);
#154=ORIENTED_EDGE('',*,*,#120,.F.);
#155=ORIENTED_EDGE('',*,*,#105,.F.);
#156=ORIENTED_EDGE('',*,*,#121,.T.);
#157=ORIENTED_EDGE('',*,*,#104,.T.);
#158=ORIENTED_EDGE('',*,*,#121,.F.);
#159=ORIENTED_EDGE('',*,*,#122,.F.);
#160=ORIENTED_EDGE('',*,*,#118,.T.);
#161=ORIENTED_EDGE('',*,*,#122,.T.);
#162=ORIENTED_EDGE('',*,*,#120,.T.);
#163=ORIENTED_EDGE('',*,*,#113,.F.);
#164=ORIENTED_EDGE('',*,*,#107,.T.);
#165=ORIENTED_EDGE('',*,*,#115,.T.);
#166=ORIENTED_EDGE('',*,*,#119,.T.);
#167=CYLINDRICAL_SURFACE('',#198,4.17156228808693);
#168=CYLINDRICAL_SURFACE('',#209,7.5);
#169=CYLINDRICAL_SURFACE('',#212,3.2);
#170=CYLINDRICAL_SURFACE('',#219,3.6);
#171=ADVANCED_FACE('',(#29),#167,.F.);
#172=ADVANCED_FACE('',(#30,#20),#23,.T.);
#173=ADVANCED_FACE('',(#31,#21),#24,.T.);
#174=ADVANCED_FACE('',(#32),#17,.T.);
#175=ADVANCED_FACE('',(#33),#168,.T.);
#176=ADVANCED_FACE('',(#34,#22),#25,.T.);
#177=ADVANCED_FACE('',(#35),#169,.F.);
#178=ADVANCED_FACE('',(#36),#18,.T.);
#179=ADVANCED_FACE('',(#37),#26,.F.);
#180=ADVANCED_FACE('',(#38),#19,.F.);
#181=ADVANCED_FACE('',(#39),#170,.F.);
#182=ADVANCED_FACE('',(#40),#27,.T.);
#183=ADVANCED_FACE('',(#41),#28,.F.);
#184=CLOSED_SHELL('',(#171,#172,#173,#174,#175,#176,#177,#178,#179,#180,
#181,#182,#183));
#185=DERIVED_UNIT_ELEMENT(#187,1.);
#186=DERIVED_UNIT_ELEMENT(#340,-3.);
#187=(
MASS_UNIT()
NAMED_UNIT(*)
SI_UNIT(.KILO.,.GRAM.)
);
#188=DERIVED_UNIT((#185,#186));
#189=MEASURE_REPRESENTATION_ITEM('density measure',
POSITIVE_RATIO_MEASURE(7850.),#188);
#190=PROPERTY_DEFINITION_REPRESENTATION(#195,#192);
#191=PROPERTY_DEFINITION_REPRESENTATION(#196,#193);
#192=REPRESENTATION('material name',(#194),#337);
#193=REPRESENTATION('density',(#189),#337);
#194=DESCRIPTIVE_REPRESENTATION_ITEM('Steel','Steel');
#195=PROPERTY_DEFINITION('material property','material name',#347);
#196=PROPERTY_DEFINITION('material property','density of part',#347);
#197=AXIS2_PLACEMENT_3D('',#281,#222,#223);
#198=AXIS2_PLACEMENT_3D('',#282,#224,#225);
#199=AXIS2_PLACEMENT_3D('',#284,#226,#227);
#200=AXIS2_PLACEMENT_3D('',#287,#229,#230);
#201=AXIS2_PLACEMENT_3D('',#288,#231,#232);
#202=AXIS2_PLACEMENT_3D('',#290,#233,#234);
#203=AXIS2_PLACEMENT_3D('',#291,#235,#236);
#204=AXIS2_PLACEMENT_3D('',#293,#237,#238);
#205=AXIS2_PLACEMENT_3D('',#296,#239,#240);
#206=AXIS2_PLACEMENT_3D('',#298,#242,#243);
#207=AXIS2_PLACEMENT_3D('',#300,#244,#245);
#208=AXIS2_PLACEMENT_3D('',#303,#247,#248);
#209=AXIS2_PLACEMENT_3D('',#304,#249,#250);
#210=AXIS2_PLACEMENT_3D('',#306,#251,#252);
#211=AXIS2_PLACEMENT_3D('',#308,#254,#255);
#212=AXIS2_PLACEMENT_3D('',#309,#256,#257);
#213=AXIS2_PLACEMENT_3D('',#313,#259,#260);
#214=AXIS2_PLACEMENT_3D('',#315,#262,#263);
#215=AXIS2_PLACEMENT_3D('',#317,#264,#265);
#216=AXIS2_PLACEMENT_3D('',#319,#267,#268);
#217=AXIS2_PLACEMENT_3D('',#320,#269,#270);
#218=AXIS2_PLACEMENT_3D('',#323,#271,#272);
#219=AXIS2_PLACEMENT_3D('',#330,#273,#274);
#220=AXIS2_PLACEMENT_3D('',#332,#276,#277);
#221=AXIS2_PLACEMENT_3D('',#334,#279,#280);
#222=DIRECTION('axis',(0.,0.,1.));
#223=DIRECTION('refdir',(1.,0.,0.));
#224=DIRECTION('center_axis',(2.22460616816688E-18,0.173648177666928,0.984807753012208));
#225=DIRECTION('ref_axis',(1.,2.53457230527536E-17,-6.72805912388675E-18));
#226=DIRECTION('center_axis',(-1.32297784355222E-17,0.173648177666928,0.984807753012208));
#227=DIRECTION('ref_axis',(1.,2.53457230527536E-17,-6.72805912388675E-18));
#228=DIRECTION('',(2.22460616816688E-18,0.173648177666928,0.984807753012208));
#229=DIRECTION('center_axis',(2.22460616816688E-18,0.173648177666928,0.984807753012209));
#230=DIRECTION('ref_axis',(1.,2.53457230527536E-17,-6.72805912388675E-18));
#231=DIRECTION('center_axis',(-2.22460616816688E-18,-0.173648177666928,
-0.984807753012209));
#232=DIRECTION('ref_axis',(1.,2.53457230527536E-17,-6.72805912388675E-18));
#233=DIRECTION('center_axis',(-2.22460616816688E-18,-0.173648177666928,
-0.984807753012209));
#234=DIRECTION('ref_axis',(-2.61289643871147E-17,0.984807753012208,-0.173648177666928));
#235=DIRECTION('center_axis',(1.33879045205365E-17,-0.173648177666928,-0.984807753012208));
#236=DIRECTION('ref_axis',(2.61289643871147E-17,-0.984807753012208,0.173648177666928));
#237=DIRECTION('center_axis',(1.33879045205365E-17,-0.173648177666928,-0.984807753012208));
#238=DIRECTION('ref_axis',(-2.61289643871147E-17,0.984807753012208,-0.173648177666928));
#239=DIRECTION('center_axis',(-1.33879045205365E-17,0.173648177666928,0.984807753012208));
#240=DIRECTION('ref_axis',(-2.61289643871147E-17,0.984807753012208,-0.173648177666928));
#241=DIRECTION('',(-2.61289643871147E-17,0.984807753012208,-0.173648177666928));
#242=DIRECTION('center_axis',(4.06474703415395E-18,0.173648177666927,0.984807753012209));
#243=DIRECTION('ref_axis',(1.,8.43245022492165E-17,-7.0107126756358E-18));
#244=DIRECTION('center_axis',(-1.32297784355222E-17,0.173648177666928,0.984807753012208));
#245=DIRECTION('ref_axis',(1.,8.52780367754587E-17,-1.60294965258049E-18));
#246=DIRECTION('',(-0.707106781186546,0.122787803968971,0.696364240320021));
#247=DIRECTION('center_axis',(1.32297784355222E-17,-0.173648177666928,-0.984807753012208));
#248=DIRECTION('ref_axis',(1.,8.34981056598066E-17,-1.16974406289504E-17));
#249=DIRECTION('center_axis',(2.97956366467564E-18,-0.173648177666928,-0.984807753012209));
#250=DIRECTION('ref_axis',(1.,8.34981056598066E-17,-1.16974406289504E-17));
#251=DIRECTION('center_axis',(1.32297784355222E-17,-0.173648177666928,-0.984807753012208));
#252=DIRECTION('ref_axis',(1.,8.34981056598066E-17,-1.16974406289504E-17));
#253=DIRECTION('',(2.97956366467564E-18,-0.173648177666928,-0.984807753012209));
#254=DIRECTION('center_axis',(1.32297784355222E-17,-0.173648177666928,-0.984807753012208));
#255=DIRECTION('ref_axis',(1.,8.52780367754587E-17,-1.60294965258049E-18));
#256=DIRECTION('center_axis',(-1.33879045205365E-17,0.173648177666928,0.984807753012208));
#257=DIRECTION('ref_axis',(-1.,-6.23416249179165E-16,6.50521303491303E-17));
#258=DIRECTION('',(1.33879045205365E-17,-0.173648177666928,-0.984807753012208));
#259=DIRECTION('center_axis',(-1.33879045205365E-17,0.173648177666928,0.984807753012208));
#260=DIRECTION('ref_axis',(-2.61289643871147E-17,0.984807753012208,-0.173648177666928));
#261=DIRECTION('',(-1.33879045205365E-17,0.173648177666928,0.984807753012208));
#262=DIRECTION('center_axis',(2.97956366467564E-18,-0.173648177666928,-0.984807753012209));
#263=DIRECTION('ref_axis',(1.,8.43245022492165E-17,-7.0107126756358E-18));
#264=DIRECTION('center_axis',(-1.32297784355222E-17,0.173648177666928,0.984807753012208));
#265=DIRECTION('ref_axis',(1.,8.52780367754587E-17,-1.60294965258049E-18));
#266=DIRECTION('',(-0.707106781186548,-0.122787803968971,-0.696364240320019));
#267=DIRECTION('center_axis',(1.32297784355222E-17,-0.173648177666928,-0.984807753012208));
#268=DIRECTION('ref_axis',(1.,8.52780367754587E-17,-1.60294965258049E-18));
#269=DIRECTION('center_axis',(1.33879045205365E-17,-0.173648177666928,-0.984807753012208));
#270=DIRECTION('ref_axis',(-1.,8.35181206028098E-15,-1.44080968291397E-15));
#271=DIRECTION('center_axis',(-1.33879045205365E-17,0.173648177666928,0.984807753012208));
#272=DIRECTION('ref_axis',(-2.61289643871147E-17,0.984807753012208,-0.173648177666928));
#273=DIRECTION('center_axis',(-1.33879045205365E-17,0.173648177666928,0.984807753012208));
#274=DIRECTION('ref_axis',(-2.61289643871147E-17,0.984807753012208,-0.173648177666928));
#275=DIRECTION('',(1.33879045205365E-17,-0.173648177666928,-0.984807753012208));
#276=DIRECTION('center_axis',(1.33879045205365E-17,-0.173648177666928,-0.984807753012208));
#277=DIRECTION('ref_axis',(2.61289643871147E-17,-0.984807753012208,0.173648177666928));
#278=DIRECTION('',(-2.61289643871147E-17,0.984807753012208,-0.173648177666928));
#279=DIRECTION('center_axis',(1.,2.80567919293805E-17,8.64726511826499E-18));
#280=DIRECTION('ref_axis',(-2.61289643871147E-17,0.984807753012208,-0.173648177666928));
#281=CARTESIAN_POINT('',(0.,0.,0.));
#282=CARTESIAN_POINT('Origin',(76.0204194681525,67.7448778957375,15.0523690300266));
#283=CARTESIAN_POINT('',(71.8488571800655,67.7448778957375,15.0523690300266));
#284=CARTESIAN_POINT('Origin',(76.0204194681525,67.7448778957375,15.0523690300266));
#285=CARTESIAN_POINT('',(71.8488571800655,68.6131187840721,19.9764077950877));
#286=CARTESIAN_POINT('',(71.8488571800655,67.7448778957375,15.0523690300266));
#287=CARTESIAN_POINT('Origin',(76.0204194681525,68.6131187840721,19.9764077950877));
#288=CARTESIAN_POINT('Origin',(76.0204194681525,68.6131187840721,19.9764077950877));
#289=CARTESIAN_POINT('',(76.0204194681525,65.0678108732282,20.6015412346886));
#290=CARTESIAN_POINT('Origin',(76.0204194681525,68.6131187840721,19.9764077950877));
#291=CARTESIAN_POINT('Origin',(76.0204194681525,68.8214965972725,21.1581770987023));
#292=CARTESIAN_POINT('',(76.0204194681525,65.2761886864285,21.7833105383033));
#293=CARTESIAN_POINT('Origin',(76.0204194681525,68.8214965972725,21.1581770987023));
#294=CARTESIAN_POINT('',(77.7204194681525,71.491397415915,20.68740154856));
#295=CARTESIAN_POINT('',(77.7204194681525,66.1515957786299,21.6289526488446));
#296=CARTESIAN_POINT('Origin',(76.0204194681525,68.8214965972725,21.1581770987023));
#297=CARTESIAN_POINT('',(77.7204194681525,68.8214965972725,21.1581770987023));
#298=CARTESIAN_POINT('Origin',(76.0204194681525,67.831701984571,15.5447729065327));
#299=CARTESIAN_POINT('',(69.5204194681525,67.7448778957375,15.0523690300266));
#300=CARTESIAN_POINT('Origin',(76.0204194681525,67.7448778957375,15.0523690300266));
#301=CARTESIAN_POINT('',(68.5204194681525,67.9185260734044,16.0371767830388));
#302=CARTESIAN_POINT('',(69.0204194681525,67.831701984571,15.5447729065327));
#303=CARTESIAN_POINT('Origin',(76.0204194681525,67.9185260734044,16.0371767830388));
#304=CARTESIAN_POINT('Origin',(76.0204194681525,69.9154801165741,27.3624659426792));
#305=CARTESIAN_POINT('',(68.5204194681525,70.1759523830745,28.8396775721976));
#306=CARTESIAN_POINT('Origin',(76.0204194681525,70.1759523830745,28.8396775721976));
#307=CARTESIAN_POINT('',(68.5204194681525,69.9154801165741,27.3624659426792));
#308=CARTESIAN_POINT('Origin',(76.0204194681525,67.7448778957375,15.0523690300266));
#309=CARTESIAN_POINT('Origin',(76.0204194681525,69.9154801165741,27.3624659426792));
#310=CARTESIAN_POINT('',(77.7204194681525,72.5476719679708,26.6778322121588));
#311=CARTESIAN_POINT('',(77.7204194681525,72.5853809352167,26.8916903925369));
#312=CARTESIAN_POINT('',(77.7204194681525,67.2078703306857,27.6193833124434));
#313=CARTESIAN_POINT('Origin',(76.0204194681525,69.8777711493282,27.1486077623011));
#314=CARTESIAN_POINT('',(77.7204194681525,67.2455792979315,27.8332414928215));
#315=CARTESIAN_POINT('Origin',(76.0204194681525,70.262776471908,29.3320814487037));
#316=CARTESIAN_POINT('',(69.5204194681525,70.3496005607414,29.8244853252098));
#317=CARTESIAN_POINT('Origin',(76.0204194681525,70.3496005607414,29.8244853252098));
#318=CARTESIAN_POINT('',(69.0204194681525,70.262776471908,29.3320814487037));
#319=CARTESIAN_POINT('Origin',(76.0204194681525,70.3496005607414,29.8244853252098));
#320=CARTESIAN_POINT('Origin',(76.0204194681525,69.9400376773679,27.5017387907432));
#321=CARTESIAN_POINT('',(77.7204194681492,67.7804537489137,27.9420140181989));
#322=CARTESIAN_POINT('',(77.7204194681492,72.1199657553013,27.1768409683645));
#323=CARTESIAN_POINT('Origin',(76.0204194681525,69.9502097521075,27.5594274932817));
#324=CARTESIAN_POINT('Ctrl Pts',(77.7204194681525,67.2078703306857,27.6193833124434));
#325=CARTESIAN_POINT('Ctrl Pts',(77.7204194681525,67.5153415005078,27.7988518275859));
#326=CARTESIAN_POINT('Ctrl Pts',(77.7204194681525,67.7804537489184,27.9420140181901));
#327=CARTESIAN_POINT('Ctrl Pts',(77.7204194681525,72.1199657552938,27.1768409683579));
#328=CARTESIAN_POINT('Ctrl Pts',(77.7204194681525,72.320125425856,26.9516387850727));
#329=CARTESIAN_POINT('Ctrl Pts',(77.7204194681525,72.5476719679709,26.6778322121587));
#330=CARTESIAN_POINT('Origin',(76.0204194681525,68.5436595130054,19.5824846938828));
#331=CARTESIAN_POINT('',(76.0204194681525,64.9983516021614,20.2076181334837));
#332=CARTESIAN_POINT('Origin',(76.0204194681525,69.9502097521075,27.5594274932817));
#333=CARTESIAN_POINT('',(77.7204194681525,69.9502097521075,27.5594274932817));
#334=CARTESIAN_POINT('Origin',(77.7204194681525,67.708702306902,14.8472070707501));
#335=UNCERTAINTY_MEASURE_WITH_UNIT(LENGTH_MEASURE(0.01),#339,
'DISTANCE_ACCURACY_VALUE',
'Maximum model space distance between geometric entities at asserted c
onnectivities');
#336=UNCERTAINTY_MEASURE_WITH_UNIT(LENGTH_MEASURE(0.01),#339,
'DISTANCE_ACCURACY_VALUE',
'Maximum model space distance between geometric entities at asserted c
onnectivities');
#337=(
GEOMETRIC_REPRESENTATION_CONTEXT(3)
GLOBAL_UNCERTAINTY_ASSIGNED_CONTEXT((#335))
GLOBAL_UNIT_ASSIGNED_CONTEXT((#339,#341,#342))
REPRESENTATION_CONTEXT('','3D')
);
#338=(
GEOMETRIC_REPRESENTATION_CONTEXT(3)
GLOBAL_UNCERTAINTY_ASSIGNED_CONTEXT((#336))
GLOBAL_UNIT_ASSIGNED_CONTEXT((#339,#341,#342))
REPRESENTATION_CONTEXT('','3D')
);
#339=(
LENGTH_UNIT()
NAMED_UNIT(*)
SI_UNIT(.MILLI.,.METRE.)
);
#340=(
LENGTH_UNIT()
NAMED_UNIT(*)
SI_UNIT($,.METRE.)
);
#341=(
NAMED_UNIT(*)
PLANE_ANGLE_UNIT()
SI_UNIT($,.RADIAN.)
);
#342=(
NAMED_UNIT(*)
SI_UNIT($,.STERADIAN.)
SOLID_ANGLE_UNIT()
);
#343=SHAPE_DEFINITION_REPRESENTATION(#344,#345);
#344=PRODUCT_DEFINITION_SHAPE('',$,#347);
#345=SHAPE_REPRESENTATION('',(#197),#337);
#346=PRODUCT_DEFINITION_CONTEXT('part definition',#351,'design');
#347=PRODUCT_DEFINITION('2026-09-26-23-25-39-526','FusionComponent',#348,
#346);
#348=PRODUCT_DEFINITION_FORMATION('',$,#353);
#349=PRODUCT_RELATED_PRODUCT_CATEGORY('FusionComponent',
'FusionComponent',(#353));
#350=APPLICATION_PROTOCOL_DEFINITION('international standard',
'automotive_design',2009,#351);
#351=APPLICATION_CONTEXT(
'Core Data for Automotive Mechanical Design Process');
#352=PRODUCT_CONTEXT('part definition',#351,'mechanical');
#353=PRODUCT('2026-09-26-23-25-39-526','FusionComponent',$,(#352));
#354=PRESENTATION_STYLE_ASSIGNMENT((#356));
#355=PRESENTATION_STYLE_ASSIGNMENT((#357));
#356=SURFACE_STYLE_USAGE(.BOTH.,#358);
#357=SURFACE_STYLE_USAGE(.BOTH.,#359);
#358=SURFACE_SIDE_STYLE('',(#360));
#359=SURFACE_SIDE_STYLE('',(#361));
#360=SURFACE_STYLE_FILL_AREA(#362);
#361=SURFACE_STYLE_FILL_AREA(#363);
#362=FILL_AREA_STYLE('Steel - Satin',(#364));
#363=FILL_AREA_STYLE('Opaque(45,44,47)',(#365));
#364=FILL_AREA_STYLE_COLOUR('Steel - Satin',#366);
#365=FILL_AREA_STYLE_COLOUR('Opaque(45,44,47)',#367);
#366=COLOUR_RGB('Steel - Satin',0.627450980392157,0.627450980392157,0.627450980392157);
#367=COLOUR_RGB('Opaque(45,44,47)',0.176470588235294,0.172549019607843,
0.184313725490196);
ENDSEC;
END-ISO-10303-21;
